<svg width="240" height="234" viewBox="0 0 240 234" fill="none" xmlns="http://www.w3.org/2000/svg">
<path d="M120 3.1582C184.61 3.1582 236.842 54.1347 236.842 116.842C236.842 179.549 184.61 230.526 120 230.526C55.39 230.526 3.1582 179.549 3.1582 116.842C3.15837 54.1347 55.3901 3.1582 120 3.1582Z" fill="white" stroke="white" stroke-width="6.31579"/>
<path d="M42 44.3714C43.1667 39.1823 45.2247 38.115 49.8979 37.5265L125.192 37C155.622 37.4247 171.043 45.3984 195.747 72.8041C209.534 96.2423 213.616 110.54 209.437 139.674C204.281 161.016 197.561 171.729 178.898 188.641C175.014 189.058 173.33 188.361 172.58 182.849C177.61 173.795 178.023 168.361 178.898 158.629C171.152 176.571 163.13 185.77 140.461 200.225C134.676 200.516 132.902 199.358 134.669 192.853C142.294 179.157 145.171 170.978 146.253 154.943C127.504 184.341 112.38 199.307 76.2245 206.543C69.6149 205.599 69.046 203.523 71.4857 198.119C85.95 181.706 91.4215 170.628 97.2858 148.098C97.0399 140.609 95.0221 137.59 86.2286 135.461C84.566 135.109 79.3343 134.727 66.2204 133.882C50.3479 126.835 44.1739 120.722 42 102.816V44.3714Z" fill="black"/>
<path d="M157.975 115.241C162.249 112.421 162.249 106.151 157.975 103.331L133.064 86.8936C128.32 83.7637 122 87.1656 122 92.8486L122 125.723C122 131.406 128.32 134.808 133.064 131.678L157.975 115.241Z" fill="white"/>
</svg>
